<svg width="100" height="100" viewBox="0 0 100 100" fill="none" xmlns="http://www.w3.org/2000/svg">
  <defs>
    <linearGradient id="gradW" x1="0%" y1="0%" x2="100%" y2="100%">
      <stop offset="0%" style="stop-color:#22c55e" />
      <stop offset="100%" style="stop-color:#16a34a" />
    </linearGradient>
  </defs>
  <rect width="100" height="100" rx="28" fill="url(#gradW)"/>
  <path d="M40 28C40 22.4772 44.4772 18 50 18C55.5228 18 60 22.4772 60 28" stroke="white" stroke-width="5" stroke-linecap="round"/>
  <path d="M32 35C32 31.6863 34.6863 29 38 29H62C65.3137 29 68 31.6863 68 35V65C68 68.3137 65.3137 71 62 71H38C34.6863 71 32 68.3137 32 65V35Z" fill="white" fill-opacity="0.9"/>
  <path d="M42 45L48 51L58 41" stroke="#16a34a" stroke-width="4" stroke-linecap="round" stroke-linejoin="round"/>
  <path d="M32 55C32 55 35 60 40 60C45 60 50 55 50 55C50 55 55 60 60 60C65 60 68 55 68 55" stroke="white" stroke-width="2" stroke-opacity="0.5"/>
</svg>
